# xmcd
#
# Track frame offsets: 
#        150
#        23688
#        42786
#        68489
#        98594
#        123332
#        154282
#        181804
#        215799
#        245150
#        263455
#        283124
#        298904
#        322300
#
# Disc length: 4637 seconds
#
# Revision: 0
# Processed by: cddbd v1.5.2PL0 Copyright (c) Steve Scherf et al.
# Submitted via: ExactAudioCopyFreeDBPlugin 1.0
#
DISCID=d0121b0e
DTITLE=Supersonic Blues Machine - Road Chronicles: Live!
DYEAR=2019
DGENRE=Blues
TTITLE0=I Am Done Missing You
TTITLE1=I Ain't Fallin' Again
TTITLE2=Remedy
TTITLE3=Can't Take It No More
TTITLE4=Watchagonnado
TTITLE5=Elevate
TTITLE6=Bad Boys
TTITLE7=Let It Be
TTITLE8=La Grange (feat. Billy F. Gibbons)
TTITLE9=Broken Heart  (feat. Billy F. Gibbons)
TTITLE10=Dust My Broom (feat. Billy F. Gibbons)
TTITLE11=Running Whiskey (feat. Billy F. Gibbons)
TTITLE12=Got My Mojo Working (feat. Billy F. Gibbons)
TTITLE13=Going Down (feat. Billy F. Gibbons)
EXTD=
EXTT0=
EXTT1=
EXTT2=
EXTT3=
EXTT4=
EXTT5=
EXTT6=
EXTT7=
EXTT8=
EXTT9=
EXTT10=
EXTT11=
EXTT12=
EXTT13=
PLAYORDER=
